<?xml version="1.0" encoding="UTF-8"?>
<svg viewBox="0 0 250 229" version="1.1" xmlns="http://www.w3.org/2000/svg" xmlns:xlink="http://www.w3.org/1999/xlink">
    <title>RN Owl logo</title>
    <g id="RN-Owl-logo" stroke="none" stroke-width="1" fill="none" fill-rule="evenodd">
        <g id="owl-logo-copy">
            <path d="M124.999241,179.282869 C115.094634,189.02426 102.599288,196.133458 88.6454183,199.513589 C99.0554242,211.221161 111.309454,221.252321 124.999241,229.083665 C138.690546,221.252321 150.944576,211.221161 161.354582,199.513589 C147.400712,196.133458 134.905366,189.02426 124.999241,179.282869" id="Fill-1" fill="#74BC53"></path>
            <path d="M125.257524,68.7250996 C139.279907,54.9782754 158.50599,46.487811 179.729668,46.487811 L179.729668,46.4186484 L217.937416,46.4186484 C235.645691,46.4186484 250,32.1125091 250,14.4670176 L250,0 C250,7.98978712 243.500277,14.4670176 235.482745,14.4670176 L179.729668,14.4670176 L179.729668,14.4534858 C147.057546,14.4534858 117.72732,28.6769307 97.6095618,51.2404864 C108.063735,55.0790123 117.466306,61.0871398 125.257524,68.7250996" id="Fill-4" fill="#ACEF90"></path>
            <path d="M32.0622663,46.4186484 L70.2711455,46.4186484 L70.2711455,46.487811 C91.4946126,46.487811 110.720506,54.9782754 124.741241,68.7250996 C132.532382,61.0871398 141.934859,55.0790123 152.390438,51.2404864 C132.272879,28.6769307 102.941435,14.4534858 70.2711455,14.4534858 L70.2711455,14.4670176 L14.517111,14.4670176 C6.50116725,14.4670176 0,7.98978712 0,0 L0,14.4670176 C0,32.1125091 14.3556757,46.4186484 32.0622663,46.4186484" id="Fill-7" fill="#ACEF90"></path>
            <path d="M124.999252,68.7250996 C132.717607,61.099781 142.033483,55.099875 152.390438,51.2646822 C144.54494,42.4045307 135.314325,34.8107588 124.999252,28.8844622 C114.685675,34.8107588 105.453565,42.4045307 97.6095618,51.2646822 C107.966517,55.099875 117.280897,61.099781 124.999252,68.7250996" id="Fill-10" fill="#95DD77"></path>
            <path d="M141.434263,124.003984 C141.434263,162.785444 109.99543,194.223108 71.2158933,194.223108 C32.4333416,194.223108 0.996015936,162.785444 0.996015936,124.003984 C0.996015936,85.2225238 32.4333416,53.7848606 71.2158933,53.7848606 C109.99543,53.7848606 141.434263,85.2225238 141.434263,124.003984" id="Fill-12" fill="#95DD77"></path>
            <path d="M250,124.003984 C250,162.785444 218.560829,194.223108 179.780876,194.223108 C140.999416,194.223108 109.561753,162.785444 109.561753,124.003984 C109.561753,85.2225238 140.999416,53.7848606 179.780876,53.7848606 C218.560829,53.7848606 250,85.2225238 250,124.003984" id="Fill-15" fill="#95DD77"></path>
            <path d="M109.561753,124.003984 C109.561753,145.182145 92.3936389,162.350598 71.2158965,162.350598 C50.03664,162.350598 32.8685259,145.182145 32.8685259,124.003984 C32.8685259,102.825824 50.03664,85.6573705 71.2158965,85.6573705 C92.3936389,85.6573705 109.561753,102.825824 109.561753,124.003984" id="Fill-17" fill="#CAFFB4"></path>
            <path d="M218.12749,124.003984 C218.12749,145.182145 200.959037,162.350598 179.780876,162.350598 C158.601202,162.350598 141.434263,145.182145 141.434263,124.003984 C141.434263,102.825824 158.601202,85.6573705 179.780876,85.6573705 C200.959037,85.6573705 218.12749,102.825824 218.12749,124.003984" id="Fill-19" fill="#CAFFB4"></path>
            <path d="M109.561753,124.003984 C109.561753,140.816722 115.540892,156.241832 125.498008,168.326693 C135.456646,156.241832 141.434263,140.816722 141.434263,124.003984 C141.434263,107.191247 135.456646,91.7661362 125.498008,79.6812749 C115.540892,91.7661362 109.561753,107.191247 109.561753,124.003984" id="Fill-21" fill="#74BC53"></path>
            <path d="M124.999248,179.282869 C117.275648,186.915429 107.962824,192.923012 97.6095618,196.780068 C105.463968,205.61928 114.694099,213.198984 124.999248,219.123506 C135.304398,213.198984 144.536032,205.62079 152.390438,196.780068 C142.037176,192.923012 132.722848,186.915429 124.999248,179.282869" id="Fill-23" fill="#95DD77"></path>
        </g>
    </g>
</svg>
