<svg width="337" height="202" viewBox="0 0 337 202" fill="none" xmlns="http://www.w3.org/2000/svg">
<path d="M0 168.4V100.9L67.3 33.7L101 33.6V134.7H33.7L0 168.4Z" fill="#5B2A5A"/>
<path d="M101 0L67.3 33.7L101 33.6V0Z" fill="#893F88"/>
<path d="M134.6 0H101V33.6H134.6V0Z" fill="#E569E3"/>
<path d="M134.7 134.7L134.6 33.6H101V134.7H134.7Z" fill="#893F88"/>
<path d="M168.4 134.7H134.7L134.6 33.6H168.4V134.7Z" fill="#E569E3"/>
<path d="M168.4 0H134.6V33.6H168.4V0Z" fill="#EFA5EE"/>
<path d="M202.1 0H168.4L202.1 33.6V0Z" fill="#FBE2FA"/>
<path d="M168.4 33.6V0L202.1 33.6H168.4Z" fill="#F5C3F4"/>
<path d="M202.1 168.4L168.4 134.7V33.6H202.1V168.4Z" fill="#EFA5EE"/>
<path d="M336.2 90.4L235.7 190.7L225 201.4L224.4 202H168.3L183.1 187.3L202 168.6V0H236.6C288.4 0.4 330.9 39.8 336.1 90.3C336.2 90.4 336.2 90.4 336.2 90.4Z" fill="#F5C3F4"/>
<path d="M336.7 101C336.7 156.8 291.5 202 235.7 202H224.4L225 201.4L235.7 190.7L336.1 90.5C336.5 93.9 336.7 97.4 336.7 101Z" fill="#E569E3"/>
<path d="M247.1 67.3C247.1 73.5 242 78.6 235.8 78.6C229.6 78.6 224.5 73.5 224.5 67.3C224.5 61.1 229.6 56 235.8 56C242 56 247.1 61.1 247.1 67.3Z" fill="#5B2A5A"/>
<path d="M235.8 19.7C222.6 19.7 210.7 25.1 202.1 33.7V101.1L202.2 101.2H202.1V168.5L269.4 101.2C278.1 92.6 283.4 80.6 283.4 67.4C283.4 41 262.1 19.7 235.8 19.7ZM235.8 56C242 56 247.1 61.1 247.1 67.3C247.1 73.5 242 78.6 235.8 78.6C229.6 78.6 224.5 73.5 224.5 67.3C224.5 61.1 229.5 56 235.8 56Z" fill="#FBE2FA"/>
</svg>
