<?xml version="1.0" encoding="utf-8"?>
<!-- Generator: Adobe Illustrator 25.2.3, SVG Export Plug-In . SVG Version: 6.00 Build 0)  -->
<svg version="1.1" id="Layer_1" xmlns="http://www.w3.org/2000/svg" xmlns:xlink="http://www.w3.org/1999/xlink" x="0px" y="0px"
	 viewBox="0 0 600 594.3" style="enable-background:new 0 0 600 594.3;" xml:space="preserve">
<path id="Polygon-Copy-4_6_" style="fill-rule:evenodd;clip-rule:evenodd;fill:#202020;" d="M342.3,9l196,87.2
	c37.6,16.7,61.8,54,61.8,95.1v212c0,41.1-24.2,78.3-61.8,95.1l-196,87.2c-26.9,12-57.6,12-84.6,0l-196-87.2
	C24.2,481.5,0,444.3,0,403.2v-212c0-41.1,24.2-78.3,61.8-95.1L257.7,9C284.6-3,315.4-3,342.3,9z"/>
<path id="Polygon-Copy-5_6_" class="inner-ring" style="opacity:0.5;fill:none;stroke:#E569E3;stroke-width:24;stroke-miterlimit:10;enable-background:new    ;" d="
	M553.2,441.6c-7.1,10.9-17.3,19.8-29.7,25.3l-191.1,84.7c-20.6,9.1-44.1,9.1-64.7,0L76.4,466.9c-12.4-5.5-22.6-14.4-29.7-25.3
	s-11.1-23.9-11.1-37.5V190.4c0-13.6,4-26.5,11.1-37.5c7.1-10.9,17.3-19.8,29.7-25.3l191.1-84.7c20.6-9.1,44.1-9.1,64.7,0l191.1,84.7
	c12.4,5.5,22.6,14.4,29.7,25.3c7.1,10.9,11.1,23.9,11.1,37.5v213.7C564.3,417.7,560.3,430.7,553.2,441.6z"/>
<path id="Polygon-Copy_6_" class="outer-ring" style="fill:none;stroke:#E569E3;stroke-width:24;stroke-miterlimit:10;" d="M573.1,453.3
	c-9.5,14.6-23.2,26.6-39.8,33.9l-196,87.2c-23.8,10.6-51,10.6-74.8,0l-196-87.2c-16.6-7.4-30.3-19.3-39.8-33.9S12,421.3,12,403.2
	v-212c0-18.2,5.4-35.5,14.9-50.1s23.2-26.6,39.8-33.9l196-87.2c23.8-10.6,51-10.6,74.8,0l196,87.2c16.6,7.4,30.3,19.3,39.8,33.9
	s14.9,32,14.9,50.1v212C588,421.3,582.6,438.7,573.1,453.3z"/>
<g>
	<path style="fill:#E569E3;" d="M227.2,403.9h8l14.6,25.6v-25.6h7.1v36.7h-7.7l-14.9-26v26h-7.1V403.9z"/>
	<path style="fill:#E569E3;" d="M265.1,403.9h7.8v22.5c0,2.5,0.3,4.4,0.9,5.5c0.9,2.1,2.9,3.1,6.1,3.1c3.1,0,5.1-1,6-3.1
		c0.6-1.2,0.9-3,0.9-5.5v-22.5h7.8v22.6c0,3.9-0.6,6.9-1.8,9.1c-2.3,4-6.6,6-12.9,6s-10.7-2-12.9-6c-1.2-2.2-1.8-5.2-1.8-9.1V403.9z
		"/>
	<path style="fill:#E569E3;" d="M303.1,403.9h7.5V419l14.2-15.1h9.9L319.6,419l15.8,21.6h-9.9l-11.3-16l-3.7,3.7v12.3h-7.5V403.9z"
		/>
	<path style="fill:#E569E3;" d="M351.2,403.9h8.7l13,36.7h-8.3l-2.4-7.5h-13.5l-2.5,7.5h-8L351.2,403.9z M350.7,426.7h9.4l-4.6-14.4
		L350.7,426.7z"/>
</g>
<g>
	<polygon style="fill:#5B2A5A;" points="121.7,328.4 121.7,260.9 189,193.7 222.7,193.6 222.7,294.7 155.4,294.7 	"/>
	<polygon style="fill:#893F88;" points="222.7,160 189,193.7 222.7,193.6 	"/>
	<polygon style="fill:#E569E3;" points="256.3,160 222.7,160 222.7,193.6 256.3,193.6 	"/>
	<polygon style="fill:#893F88;" points="256.4,294.7 256.3,193.6 222.7,193.6 222.7,294.7 	"/>
	<polygon style="fill:#E569E3;" points="290.1,294.7 256.4,294.7 256.3,193.6 290.1,193.6 	"/>
	<polygon style="fill:#EFA5EE;" points="290.1,160 256.3,160 256.3,193.6 290.1,193.6 	"/>
	<polygon style="fill:#FBE2FA;" points="323.8,160 290.1,160 323.8,193.6 	"/>
	<polygon style="fill:#F5C3F4;" points="290.1,193.6 290.1,160 323.8,193.6 	"/>
	<polygon style="fill:#EFA5EE;" points="323.8,328.4 290.1,294.7 290.1,193.6 323.8,193.6 	"/>
	<path style="fill:#F5C3F4;" d="M457.9,250.4L357.4,350.7l-10.7,10.7l-0.6,0.6l-56.1,0l14.8-14.7l18.9-18.7V160h34.6
		c51.8,0.4,94.3,39.8,99.5,90.3C457.9,250.4,457.9,250.4,457.9,250.4z"/>
	<path style="fill:#E569E3;" d="M458.4,261c0,55.8-45.2,101-101,101h-11.3l0.6-0.6l10.7-10.7l100.4-100.2
		C458.2,253.9,458.4,257.4,458.4,261z"/>
	<path style="fill:#5B2A5A;" d="M368.8,227.3c0,6.2-5.1,11.3-11.3,11.3s-11.3-5.1-11.3-11.3c0-6.2,5.1-11.3,11.3-11.3
		S368.8,221.1,368.8,227.3z"/>
	<path style="fill:#FBE2FA;" d="M357.5,179.7c-13.2,0-25.1,5.4-33.7,14l0,67.4l0.1,0.1h-0.1v67.3l67.3-67.3c8.7-8.6,14-20.6,14-33.8
		C405.1,201,383.8,179.7,357.5,179.7z M357.5,216c6.2,0,11.3,5.1,11.3,11.3c0,6.2-5.1,11.3-11.3,11.3s-11.3-5.1-11.3-11.3
		C346.2,221.1,351.2,216,357.5,216z"/>
</g>
</svg>
